<?xml version="1.0" standalone="no"?>
<!DOCTYPE svg PUBLIC "-//W3C//DTD SVG 20010904//EN"
 "http://www.w3.org/TR/2001/REC-SVG-20010904/DTD/svg10.dtd">
<svg version="1.0" xmlns="http://www.w3.org/2000/svg"
 width="260.000000pt" height="260.000000pt" viewBox="0 0 260.000000 260.000000"
 preserveAspectRatio="xMidYMid meet">
<metadata>
Created by potrace 1.11, written by Peter Selinger 2001-2013
</metadata>
<g transform="translate(0.000000,260.000000) scale(0.100000,-0.100000)"
fill="#000000" stroke="none">
<path d="M1097 2554 c-249 -38 -499 -166 -683 -349 -248 -246 -374 -550 -374
-901 0 -341 127 -652 365 -889 284 -285 682 -418 1075 -361 284 42 542 174
736 379 466 490 467 1258 2 1743 -248 259 -574 396 -929 393 -57 -1 -143 -7
-192 -15z m406 -260 c106 -20 228 -66 318 -118 86 -51 162 -114 153 -127 -3
-5 -21 -16 -40 -24 -41 -17 -42 -26 -9 -59 16 -16 31 -22 45 -19 16 4 20 1 20
-20 0 -22 -4 -24 -40 -23 -32 0 -45 -5 -63 -26 -12 -14 -32 -29 -44 -33 -23
-6 -40 -38 -24 -43 6 -2 11 -10 11 -17 0 -10 -16 -15 -52 -17 -52 -3 -53 -3
-56 -38 -4 -41 16 -60 64 -60 27 0 38 8 65 45 21 29 40 45 54 45 11 0 26 5 33
12 9 9 15 8 24 -3 7 -9 28 -26 46 -38 31 -22 35 -48 6 -37 -8 3 -14 1 -14 -4
0 -6 11 -10 24 -10 17 0 25 7 28 25 3 14 2 25 -2 25 -11 0 -60 48 -60 60 0 5
10 10 22 10 26 0 78 -47 78 -70 0 -9 9 -25 20 -35 19 -18 20 -17 20 1 0 35 40
61 40 27 1 -28 24 -51 55 -55 22 -2 31 -11 41 -40 7 -20 10 -39 7 -42 -15 -14
-82 -5 -107 15 -30 23 -76 20 -76 -6 0 -8 -1 -15 -2 -15 -2 1 -28 9 -58 20
-46 15 -56 23 -58 45 -3 26 -4 27 -65 21 -170 -15 -207 -28 -207 -75 0 -22
-12 -36 -55 -67 -58 -41 -66 -57 -37 -73 14 -8 15 -13 5 -30 -7 -12 -13 -38
-13 -59 0 -30 9 -47 46 -90 l47 -53 56 6 c31 4 70 12 88 18 26 9 36 8 50 -5
10 -9 31 -18 48 -20 28 -3 30 -5 27 -46 -3 -33 4 -55 31 -105 l35 -62 -19 -35
c-22 -43 -24 -64 -4 -80 9 -7 15 -29 15 -55 0 -27 7 -51 20 -68 11 -14 20 -40
20 -60 0 -26 5 -36 18 -39 13 -3 0 -21 -55 -75 -141 -139 -319 -235 -512 -275
-127 -26 -336 -21 -456 12 -359 97 -630 376 -726 746 -44 170 -27 438 37 581
16 36 18 37 22 13 2 -13 13 -30 23 -38 13 -9 19 -25 19 -52 0 -41 26 -96 49
-105 25 -10 26 6 3 45 -22 40 -30 90 -12 90 5 0 13 -15 18 -34 6 -19 21 -51
36 -72 16 -24 22 -42 16 -48 -6 -6 -3 -19 7 -37 18 -30 74 -50 117 -42 19 4
26 1 26 -10 0 -10 13 -18 35 -23 22 -4 43 -17 59 -39 20 -25 35 -34 71 -39 43
-7 45 -9 45 -40 0 -24 -7 -38 -24 -49 -17 -12 -25 -28 -29 -64 -5 -44 -2 -51
34 -94 21 -26 39 -54 39 -62 0 -8 10 -17 23 -21 12 -3 34 -16 49 -28 26 -22
27 -27 31 -150 3 -94 8 -133 20 -152 11 -16 14 -36 10 -59 -7 -42 28 -109 78
-151 49 -42 108 -33 68 10 -15 16 -20 32 -17 53 4 24 1 31 -13 31 -24 0 -32
27 -11 40 16 9 16 11 0 24 -10 7 -18 16 -18 20 0 3 8 6 18 6 34 1 81 36 122
90 35 46 41 61 37 91 -6 49 7 69 46 69 49 1 63 18 71 85 4 39 16 73 31 96 28
40 32 59 11 59 -8 0 -23 11 -34 25 -15 19 -29 25 -57 25 -66 0 -115 20 -121
49 -12 59 -22 71 -57 71 -26 0 -37 6 -47 26 -17 30 -46 49 -55 34 -10 -17 -54
-11 -75 10 -27 27 -62 25 -90 -5 -24 -25 -46 -30 -87 -19 -19 5 -23 13 -23 46
0 35 -4 41 -30 51 -21 8 -29 16 -24 27 3 8 8 21 11 28 8 18 -19 14 -47 -8 -34
-26 -76 -26 -91 1 -8 17 -7 31 6 65 22 57 70 84 150 84 48 0 55 -2 55 -20 0
-10 9 -24 20 -30 18 -10 20 -8 20 25 0 31 6 40 45 67 25 18 45 37 45 44 0 21
164 160 186 158 8 -1 14 2 14 7 0 5 -4 9 -10 9 -5 0 -10 7 -10 15 0 18 31 20
48 3 9 -9 18 -9 37 0 15 7 30 10 35 7 15 -9 40 7 40 26 0 10 -9 23 -20 29 -12
6 -20 21 -20 36 0 21 -4 25 -17 19 -46 -19 -53 -18 -53 8 0 22 -6 27 -34 33
-45 8 -56 0 -56 -42 0 -30 -5 -37 -29 -47 -16 -6 -34 -21 -40 -34 -16 -34 -41
-30 -41 7 0 25 -4 30 -24 30 -22 0 -56 32 -56 52 0 11 102 68 122 68 9 0 18
-5 20 -11 5 -14 38 0 38 17 0 8 5 14 12 14 6 0 19 6 27 14 25 23 85 30 99 13
10 -12 7 -18 -19 -35 l-32 -20 39 -11 c32 -9 41 -8 50 4 6 8 20 15 32 15 24 0
37 26 16 34 -8 3 -14 12 -14 20 0 21 -72 56 -115 56 -49 0 -75 -16 -75 -45 0
-18 -5 -25 -19 -25 -25 0 -37 31 -17 46 20 14 10 24 -25 24 -29 0 -52 -21 -31
-28 20 -6 14 -32 -7 -32 -11 0 -23 -4 -26 -10 -3 -5 -22 -10 -41 -10 -27 0
-34 4 -34 20 0 15 7 20 29 20 16 0 34 7 41 15 16 19 5 34 -12 17 -17 -17 -63
-15 -78 3 -17 21 -70 18 -100 -5 l-25 -20 28 0 c17 0 27 -5 27 -15 0 -9 9 -15
24 -15 14 0 28 -4 31 -10 11 -17 -49 -11 -93 10 -22 11 -54 20 -69 20 -25 0
-21 5 35 41 211 135 468 182 725 133z"/>
<path d="M1780 1958 c0 -6 10 -22 21 -35 20 -20 20 -23 5 -29 -27 -10 -19 -34
12 -34 44 0 54 17 26 47 -13 14 -24 34 -24 44 0 12 -7 19 -20 19 -11 0 -20 -5
-20 -12z"/>
<path d="M1737 1912 c-18 -19 -23 -42 -9 -42 16 0 52 32 52 46 0 20 -24 18
-43 -4z"/>
<path d="M1275 1839 c-9 -14 -4 -18 34 -29 39 -11 44 11 6 28 -32 15 -32 15
-40 1z"/>
<path d="M1216 1795 c-11 -8 -17 -17 -14 -20 2 -3 15 4 28 15 26 23 15 27 -14
5z"/>
<path d="M1155 1780 c-3 -5 -1 -10 4 -10 6 0 11 5 11 10 0 6 -2 10 -4 10 -3 0
-8 -4 -11 -10z"/>
</g>
</svg>
