<svg version="1.1" id="Layer_1" xmlns="http://www.w3.org/2000/svg" xmlns:xlink="http://www.w3.org/1999/xlink" x="0px" y="0px"
width="181px" height="36.3px" viewBox="0 0 181 36.3" enable-background="new 0 0 181 36.3" xml:space="preserve">
<g>
  <path fill="#FFFFFF" d="M31.4,12.8l0.3,0.2H32v-0.6l0.9-0.1l0.9,0.7h1.4l0.1-0.1c-0.1-0.5-0.3-1-0.5-1.4l-0.9,0L33.4,11l-0.1-0.8
  l-0.5,0.3l-0.3,1l-0.7-0.7l0-0.7l-0.7-0.6l-0.2-0.2h-0.8l0.2,0.7l0.9,0.5l0.2,0.2l-0.2,0.1l0,0.5l-0.5,0.2l-0.4-0.1L30.2,11l0.6,0
  l0.2-0.2l-1.4-0.9l-0.1-0.4L28.9,10l-0.6-0.1L27.5,11l-0.2,0.4l-0.6,0.1l-0.8,0l-0.5-0.2l-0.1-1l0.2-0.5l0.8-0.2l0.9,0.2l0.1-0.5
  l-0.4-0.1l0.1-0.8L28,8.2l0.7-0.9l0.7-0.1l0.6,0.1h0.2L30,6.4l-0.7,0.3L29,6.1L28.6,6l-0.1-0.4l0.3-0.4l0.8-0.3l0.2-0.4
  C26.7,1.7,22.6,0,18,0c-4,0-7.6,1.3-10.6,3.5l0.9,0l0.4,0.2l0.8,0.2l0.1,0.3l1.2,0l-0.2-0.4l-1.1,0l0.3-0.2L9.7,3.2h-1l1.1-0.8h1
  l0.5,0.7l0.8,0l0.5-0.5l0.4,0.2l-0.7,0.6c0,0-0.9,0-0.9,0s0.1,0.6,0.1,0.6l1.1,0l0.1-0.3l0.8,0l0.1-0.4l-0.4-0.1l0.1-0.4l0.3-0.1
  l1.2,0.1l-0.7,0.6l0.1,0.5L14.9,4l0-0.8l0.7-0.3l1.2-0.1l1.7,0.7V4l0.5,0.1l-0.3,0.5h-0.8l-0.2,0.6l-1.7-0.4l1.4-0.7l-0.5-0.4
  l-1.2,0.2l-0.1,0.1l0,0l0,0l-0.3,0.4l-0.6,0l0,0.3l0.2,0.1l0,0.1l-0.5,0.1l0,0.3l-0.4,0l-0.1-0.5L13,4.9l-1.6,0.9l0.2,0.7L12,6.8
  l0.9,0.1v1l0.4-0.1l0.4-0.8l1-0.3V5.5l0.5-0.4l1.3,0.3l-0.1,0.8h0.3l0.9-0.5l0,1.1l0.7,0.4l0,0.6l-0.7,0.2l0,0.2l0.8,0.4l0,0.4
  l-0.2,0c0,0,0,0,0,0l-1-0.3l0-0.3h0l0.3-0.2V8l-0.3-0.1l-0.1,0.3l-0.6,0.1l-0.1,0v0l-0.2,0L16.2,8l-0.2-0.1h-0.4l-0.2,0.1v0.3
  l0.3,0.1l0.3,0l-0.1,0l-0.3,0.3l-0.1-0.2l-0.3-0.1l-0.8,0.8l0.1,0.1l-1.2,0.7l-1.1,1.2l-0.1,0.5l-1.1,0.7l-0.6,0.6l0.1,1.1
  l-0.8-0.4l0-0.6l-2.1,0l-1.1,0.6l-0.5,0.9L6,15.4L6.3,16l0.9,0.1l1.4-0.9l0.1,0.5l-0.4,0.8l1,0.2l0.1,1.6l1.4,0.2l0.9-1.1l1.1,0.2
  l0.4,0.5l1.1-0.1l0-0.3l0.6,0.3l0.7,1l1.1,0l0.4,0.7l0.1,0.9l1.3,0.5l1.6,0l0.5,0.8l0.7,0.2l-0.1,0.6l-0.8,1l-0.2,2.2l-0.7,0.6
  l-1,0l-0.3,0.6l0.3,1.1l-1.1,1.4l-0.4,0.7l-1.1,0.5L15.1,31l0,0.3l0.5,0.1l-0.1,0.3L15,32.2l0.3,0.3l0.5,0l0,0.4l-0.1,0.4l0,0.3
  l0.8,0.7l-0.1,0.3l-1.1,0l-1.1-0.9l-0.8-1.5l0.1-1.4l-0.6-0.8l0.3-1.4l-0.4-0.1v-3.1c0,0-1-0.8-1.1-0.8c-0.1,0-0.6-0.1-0.6-0.1
  l-0.1-0.6l-1.4-1.7l0.1-0.6l0-1l0.9-0.7l-0.1-1.1l-1.4-0.1l-1.1-1.2l-0.8-0.2l-0.5-0.1l0.1-0.4l-0.6-0.1v0.3l-1.6-0.4l-0.6-1
  l0.3-0.5l-1-1.5l-0.2-1.1H2.7l0.1,1l0.7,1.1l-0.1,0.4L2.9,15l-0.7-1.2v-1.4L1.4,12v-1C0.5,13.1,0,15.5,0,18C0,28,8.1,36,18,36
  c5.6,0,10.7-2.6,14-6.7h-0.6v-1.2l-0.7-0.9v-1.4l-0.5-0.5l0-0.6l0.7-1.3l-1.3-2.2l0.1-1.5l-1.1-0.1l-0.4-0.4h-0.8L27,19.5h-1.3
  l0,0.1h-0.7l-1.7-2l0-1.5l0.3-0.1l0.1-0.6h-0.4L23,14.8l2-1.4v-1l1-0.5l0.4,0h0.8l0.6-0.3l2-0.2v1L31.4,12.8z M26.3,6.4l0.2-0.3
  L27.1,6l0.1,0.7l0.3,0.5l0.2,0.2l0.4,0.1l-0.4,0.4l-0.7,0.1h-0.5l0.1-0.6L27,7.4l0-0.3l-0.4-0.3l-0.3-0.2L26.3,6.4L26.3,6.4z
  M25.3,7.5l0.4-0.6l0.5-0.1L26.5,7l0,0.4l-0.7,0.5h-0.4L25.3,7.5L25.3,7.5z M15.5,9.7l-0.4,0l0-0.3l0.2-0.2l0.2,0.2L15.5,9.7z
  M16.9,9.3l-0.3,0l-0.1,0.2l-0.2,0.1l-0.3,0c0-0.1,0-0.1,0-0.1h-0.1V9.3h0.5L16.5,9l0.2,0l0.2,0L16.9,9.3z"/>
</g>
<g>
  <path fill="#FFFFFF" d="M55.8,8l-0.6,2.7c1-0.9,2.4-1.5,4.2-1.5c2.4,0,4.4,1.4,4.4,5.7c0,4.9-1.9,12.7-8.9,12.7
  c-1.8,0-2.7-0.6-3.1-1.3L50.1,35l-5.4,1.3l6-28.3H55.8z M58.9,14.7c0-2.8-1.2-3-1.8-3c-0.8,0-1.8,0.6-2.5,1.8l-2.1,10.1
  c0.1,0.4,0.5,0.8,1.4,0.8C57.7,24.4,58.9,18.1,58.9,14.7z"/>
  <path fill="#FFFFFF" d="M74,2.1l-4.1,19.4c-0.1,0.5-0.1,0.8-0.1,1.2c0,1,0.5,1.3,1.5,1.3c1.4,0,2.7-1.4,3.2-3.2h1.5
  c-2.1,5.9-5.6,6.7-7.6,6.7c-2.2,0-3.9-1.3-3.9-4.3c0-0.7,0.1-1.5,0.3-2.3l3.9-18L74,2.1z"/>
  <path fill="#FFFFFF" d="M91.7,9.3l-2.6,12.2c-0.1,0.5-0.1,0.8-0.1,1.2c0,1,0.5,1.5,1.5,1.5c1.4,0,2.4-1.6,2.9-3.4h1.5
  c-2.1,5.9-5.3,6.7-7.2,6.7c-2,0-3.3-1.2-3.5-3.3c-1.1,1.7-2.8,3.3-5.4,3.3c-2.4,0-4.8-1.5-4.8-5.8c0-4.9,3-12.6,9.3-12.6
  c2.1,0,2.9,0.8,2.9,1.8v0.3l0.4-1.9H91.7z M79.2,21.2c0,2.8,1.2,2.8,1.8,2.8c1,0,2.6-1.1,3-3.2l1.7-8.1c0-0.4-0.3-1.4-1.5-1.4
  C81.2,11.4,79.2,17.8,79.2,21.2z"/>
  <path fill="#FFFFFF" d="M102.4,12.4c-1.3,0-2.3,1.5-2.8,3.3l-2.4,11.6H92l3.8-18h5.2l-0.4,1.9c1.5-1.7,3.1-2,4.2-2
  c2.3,0,4,1.2,4,4.1c0,2.9-1.7,7.3-1.7,9.3c0,0.9,0.4,1.5,1.4,1.5c1.6,0,2.2-1.3,3-3.2h1.5c-2,5.9-4.8,6.7-6.7,6.7
  c-3.1,0-4.2-2-4.2-4.1c0-2.4,1.6-6.9,1.6-9.2C103.7,13.1,103.3,12.4,102.4,12.4z"/>
  <path fill="#FFFFFF" d="M119.1,9.3l-2.6,12.2c-0.1,0.5-0.1,0.8-0.1,1.2c0,1,0.5,1.3,1.5,1.3c1.4,0,2.7-1.4,3.2-3.2h1.5
  c-2.1,5.9-5.6,6.7-7.6,6.7c-2.2,0-3.9-1.3-3.9-4.3c0-0.7,0.1-1.5,0.3-2.3L114,9.3H119.1z M117.5,1.6c1.6,0,2.9,1.3,2.9,2.9
  s-1.3,2.8-2.9,2.8s-2.8-1.3-2.8-2.8S115.9,1.6,117.5,1.6z"/>
  <path fill="#FFFFFF" d="M130,3.6l-1.2,5.7h2.2l-0.3,1.4h-2.2l-2.3,10.8c-0.1,0.5-0.1,0.8-0.1,1.2c0,1,0.5,1.3,1.5,1.3
  c1.4,0,2.7-1.4,3.2-3.2h1.5c-2.1,5.9-5.6,6.7-7.6,6.7c-2.2,0-3.9-1.3-3.9-4.3c0-0.7,0.1-1.5,0.3-2.3l2.2-10.1h-1.2l0.3-1.4h1.2
  l1.1-5L130,3.6z"/>
  <path fill="#FFFFFF" d="M147.2,9.3l-2.6,12.2c-0.1,0.5-0.1,0.8-0.1,1.2c0,1,0.5,1.3,1.5,1.3c1.4,0,2.4-1.4,2.9-3.2h1.5
  c-2.1,5.9-5.3,6.7-7.2,6.7c-2.1,0-3.3-1.2-3.6-3.4c-1.8,3-3.8,3.4-5.3,3.4c-2.2,0-3.9-1.3-3.9-4.3c0-0.7,0.1-1.5,0.3-2.3l2.4-11.6
  h5.2l-2.6,12.2c-0.1,0.4-0.1,0.7-0.1,1c0,0.8,0.3,1.5,1.1,1.5c1.4,0,2.3-1.4,2.9-3.2l2.4-11.6H147.2z"/>
  <path fill="#FFFFFF" d="M167.7,2.1l-4.1,19.4c-0.1,0.5-0.1,0.8-0.1,1.2c0,1,0.5,1.3,1.5,1.3c1.4,0,2.4-1.4,2.9-3.2h1.5
  c-2.1,5.9-5.3,6.4-7.2,6.4s-3.2-1.1-3.5-3.1c-1.1,1.7-2.8,3.3-5.3,3.3c-2.4,0-4.8-1.5-4.8-5.8c0-4.9,3-12.6,9.3-12.6
  c2.1,0,2.9,0.8,2.9,1.8v0.1l1.8-8.3L167.7,2.1z M158.5,20.9l1.8-8.2c-0.1-0.4-0.4-1.3-1.5-1.3c-3.1,0-5,6.5-5,9.9
  c0,2.8,1.2,2.8,1.8,2.8c1,0,2.5-1,3-3V20.9z"/>
  <path fill="#FFFFFF" d="M174.9,24.1c1.4,0,3.1-0.9,4.2-1.9c-0.8,4.1-3.3,5.3-6.2,5.3c-3.3,0-5.6-1.7-5.6-5.7
  c0-4.1,2.3-12.8,9.7-12.8c3.2,0,4,1.7,4,3.5c0,4.2-4,7.3-8.3,7.6c0,0.4-0.1,0.8-0.1,1.1C172.6,23.4,173.6,24.1,174.9,24.1z
  M177.3,10.9c-1.8,0-3.6,4-4.4,7.4c2.8-0.1,5.3-2.9,5.3-5.9C178.2,11.5,178,10.9,177.3,10.9z"/>
</g>
</svg>
